<?xml version="1.0" standalone="no"?><!DOCTYPE svg PUBLIC "-//W3C//DTD SVG 1.1//EN" "http://www.w3.org/Graphics/SVG/1.1/DTD/svg11.dtd"><svg t="1734765034980" class="icon" viewBox="0 0 1592 1024" version="1.1" xmlns="http://www.w3.org/2000/svg" p-id="35950" xmlns:xlink="http://www.w3.org/1999/xlink" width="310.9375" height="200"><path d="M382.293333 79.644444c116.849778 0 209.123556 37.546667 276.707556 113.777778 64.398222 71.793778 96.597333 167.253333 96.597333 285.354667 0 114.801778-31.175111 208.099556-91.249778 278.869333 27.989333 36.408889 56.888889 75.093333 84.764445 115.939556l-81.464889 70.769778a3115.235556 3115.235556 0 0 0-84.764444-117.987556c-55.751111 32.199111-123.448889 49.379556-200.704 49.379556-117.987556 0-210.261333-38.684444-276.707556-113.777778-64.398222-72.931556-95.573333-167.253333-95.573333-283.306667 0-116.849778 31.175111-211.285333 95.573333-284.216889C171.804444 117.191111 264.192 79.644444 382.179556 79.644444z m0 110.478223c-79.416889 0-140.629333 26.851556-184.547555 80.440889-41.870222 51.541333-62.236444 120.149333-62.236445 208.213333 0 86.812444 20.366222 155.534222 62.236445 207.075555 42.894222 52.565333 105.130667 79.303111 184.433778 79.303112 50.517333 0 93.297778-10.695111 129.820444-31.061334-38.684444-47.217778-75.093333-89.088-110.364444-126.634666l72.817777-70.769778c37.546667 39.708444 75.093333 81.464889 111.616 124.472889 27.875556-47.217778 42.894222-108.430222 42.894223-182.385778 0-90.112-21.390222-160.995556-63.260445-212.423111-42.894222-51.541333-104.106667-76.231111-183.523555-76.231111zM1213.553778 79.644444c116.963556 0 209.237333 37.546667 276.821333 113.777778 64.398222 71.793778 96.597333 167.253333 96.597333 285.354667 0 114.801778-31.175111 208.099556-91.249777 278.869333 27.875556 36.408889 56.888889 75.093333 84.764444 115.939556l-81.578667 70.769778a3115.235556 3115.235556 0 0 0-84.764444-117.987556c-55.751111 32.199111-123.335111 49.379556-200.590222 49.379556-117.987556 0-210.261333-38.684444-276.821334-113.777778-64.284444-72.931556-95.459556-167.253333-95.459555-283.306667 0-116.849778 31.175111-211.285333 95.573333-284.216889C1003.292444 117.191111 1095.68 79.644444 1213.553778 79.644444z m0 110.478223c-79.416889 0-140.515556 26.851556-184.547556 80.440889-41.756444 51.541333-62.236444 120.149333-62.236444 208.213333 0 86.812444 20.48 155.534222 62.236444 207.075555 42.894222 52.565333 105.130667 79.303111 184.547556 79.303112 50.403556 0 93.297778-10.695111 129.820444-31.061334-38.684444-47.217778-75.093333-89.088-110.478222-126.634666l72.931556-70.769778c37.546667 39.708444 75.093333 81.464889 111.502222 124.472889 27.989333-47.217778 43.008-108.430222 43.008-182.385778 0-90.112-21.504-160.995556-63.260445-212.423111-43.008-51.541333-104.106667-76.231111-183.523555-76.231111z" p-id="35951"></path></svg>