<?xml version="1.0" standalone="no"?><!DOCTYPE svg PUBLIC "-//W3C//DTD SVG 1.1//EN" "http://www.w3.org/Graphics/SVG/1.1/DTD/svg11.dtd"><svg t="1734763475410" class="icon" viewBox="0 0 1024 1024" version="1.1" xmlns="http://www.w3.org/2000/svg" p-id="1454" xmlns:xlink="http://www.w3.org/1999/xlink"><path d="M513 811.6s-278.2 171-295.4 157.1C200.4 954.7 274 636 274 636S24.9 426.1 35.1 400.4c10.2-25.8 330.3-48.5 330.3-48.5S484.2 49.2 513 49.2c28.8 0 147.7 302.7 147.7 302.7s321.4 22.9 330.3 48.5S752 636 752 636s3.1 20.4 6.7 35.6c0.2 1-115.7 3.7-210.7 0-49.9-1.9-110-11.3-110-11.3L713 462s-99.5-18.1-200-21.7c-110.1-4-222.9 6.7-239 10.9-10.1 2.6 71.2 2.4 164 10.9 64.9 5.9 150.4 21.7 150.4 21.7l-275 207.1s117.8 7.2 223.4 6.5c118.9-0.8 226.2-15.8 226.9-12.9 20.7 90.6 58.9 269.7 44.7 284.3C789.1 988.5 513 811.6 513 811.6z" fill="#F15A24" p-id="1455"></path></svg>