<?xml version="1.0" standalone="no"?><!DOCTYPE svg PUBLIC "-//W3C//DTD SVG 1.1//EN" "http://www.w3.org/Graphics/SVG/1.1/DTD/svg11.dtd"><svg t="1734765921938" class="icon" viewBox="0 0 1024 1024" version="1.1" xmlns="http://www.w3.org/2000/svg" p-id="38116" xmlns:xlink="http://www.w3.org/1999/xlink" width="200" height="200"><path d="M44.5 495.5l-0.45 0.45c0-1.4 1.5-2.45 4.5-3.15 2.8-0.7 5.25-1.05 7.35-1.05 3.3 0 5.7 1.6 7.2 4.8 1.5 3.1 2.25 6.45 2.25 10.05 0 4.1-0.35 8.75-1.05 13.95l-0.6 6.3c-0.3 3.3-0.45 6.45-0.45 9.45 1.9 0 3.6-1.1 5.1-3.3 1.7-2.6 3.45-5.95 5.25-10.05 2.1-4.6 3.8-7.9 5.1-9.9 1.4-2.3 3.1-3.45 5.1-3.45 0 2.3-0.35 4.65-1.05 7.05-0.8 2.7-1.9 4.25-3.3 4.65l-8.4 16.95c-0.8 1.5-1.6 2.7-2.4 3.6-1.1 1.1-2.1 1.65-3 1.65-3.2 0-5.2-1.05-6-3.15-0.9-2.1-1.35-5-1.35-8.7 0-2.7 0.15-5.45 0.45-8.25l0.6-5.7c0.7-4.9 1.05-9.45 1.05-13.65 0-2.2-0.25-4.05-0.75-5.55-0.4-1.3-1.55-1.95-3.45-1.95-0.7 0-1.7 0.35-3 1.05-2 0.7-3.15 1.05-3.45 1.05h-2.1c-0.6 0-1.3-0.3-2.1-0.9-0.7-0.6-1.05-1.35-1.05-2.25z m8.1-35.55l-0.3 0.15 1.05-1.05h1.05l2.1 1.05c0.6 0 2.1 0.5 4.5 1.5 0.6 0.1 1.55 0.4 2.85 0.9s2.05 0.75 2.25 0.75c0.4 0.7 0.85 1.4 1.35 2.1 0.2 0.2 0.7 1 1.5 2.4 0.4 0.8 0.6 1.75 0.6 2.85 0 1.4-0.35 2.1-1.05 2.1l-4.05-2.55c-1.9-1.1-4.45-2.85-7.65-5.25-2.8-2.1-4.2-3.75-4.2-4.95z m47.4 81l-0.3 0.15c0.6-3.2 3.95-6 10.05-8.4 5.9-2.3 12.55-4.15 19.95-5.55 6.9-1.3 12.15-1.95 15.75-1.95 5.1 0 8.4 0.05 9.9 0.15 2.2 0.1 4.65 0.7 7.35 1.8 2.7 1 4.05 2.8 4.05 5.4-1.8 0-4.45-0.55-7.95-1.65-3.4-1-6.05-1.5-7.95-1.5-7.8 0-15.9 1.45-24.3 4.35-8.3 2.9-15.4 6.75-21.3 11.55-0.8 0-2-0.5-3.6-1.5-1.2-0.7-1.8-1.45-1.8-2.25 0-0.3 0.05-0.5 0.15-0.6z m22.2-75.6l-0.15 0.3v-9.6l-2.25-1.2-1.65-0.75c-1.7-0.8-2.85-1.55-3.45-2.25-0.7-0.8-1.05-2.25-1.05-4.35 2.1 0 4.35 0.55 6.75 1.65 2.3 1 4.25 2.5 5.85 4.5 1.6 1.9 2.4 4.1 2.4 6.6 0 3.7-0.2 8.5-0.6 14.4-0.4 6.4-0.6 11.85-0.6 16.35v5.25c1-1.6 3.1-3.15 6.3-4.65 3.2-1.5 6.65-2.7 10.35-3.6 3.8-0.9 6.75-1.35 8.85-1.35 0.9 0 2.3 1.1 4.2 3.3-5.3 0.6-10.3 1.8-15 3.6-4.9 2.1-8.7 4.75-11.4 7.95l-2.1-1.05h-1.2c0 3 0.2 6.55 0.6 10.65 0.4 4.1 0.6 7.65 0.6 10.65-5.3 0-7.95-5.8-7.95-17.4 0-1.3 0.1-3.95 0.3-7.95 0.1-0.6 0.15-1.7 0.15-3.3 0-3.9 0.2-8.5 0.6-13.8 0.1-0.6 0.15-1.7 0.15-3.3l0.15-3.15c0.1-1.9 0.15-4.4 0.15-7.5zM228.25 463.25c0.5 2.3 0.75 4.75 0.75 7.35v4.35c-1.5 0.8-3.35 2.6-5.55 5.4-2.3 2.9-4.4 6-6.3 9.3-1.9 3.2-2.85 5.7-2.85 7.5 0 0.5 0.25 1.35 0.75 2.55 0.3 0.7 0.85 1.75 1.65 3.15 1.5 2.4 2.45 4.4 2.85 6l-0.45 6.75c-0.4 3.3-0.6 5.65-0.6 7.05 0 1-0.1 1.8-0.3 2.4-0.2 0.5-0.8 0.75-1.8 0.75-1.1 0-2.1-0.45-3-1.35-0.9-0.9-1.35-1.85-1.35-2.85v-17.1c-0.6-0.6-1.25-1.65-1.95-3.15-0.8-1.8-1.2-2.85-1.2-3.15v-2.1c1.9-3.3 4.25-7.65 7.05-13.05 1.4-2.6 2.85-6.2 4.35-10.8 1.3-4 1.8-7.75 1.5-11.25 0.8-0.6 1.8-0.9 3-0.9 1.9 0 3.05 1.05 3.45 3.15z m-6.45-2.4v0.15l-0.15 0.15 0.15-0.3z m23.85 62.25l1.2 4.2v1.05c0 0.5-0.2 0.8-0.6 0.9-0.3 0.1-0.85 0.15-1.65 0.15-2.8 0-4.7-2.15-5.7-6.45-1.1-4.6-1.65-8.45-1.65-11.55h-0.45v-5.25c0-0.5 0.2-0.8 0.6-0.9 0.3-0.1 0.85-0.15 1.65-0.15 0.7 0 1.25 0.2 1.65 0.6 0.7 0.7 1.2 1.3 1.5 1.8l1.2 1.8 0.45 2.85 0.75 4.05c0.7 3.1 1.05 5.4 1.05 6.9z m3.75-44.85c-2.4-3.7-4.4-7.65-6-11.85-1.8-4.5-2.7-7.3-2.7-8.4l-0.45 0.3c0-0.6 0.25-1.15 0.75-1.65s1-0.75 1.5-0.75c4.2 0 7.05 2.1 8.55 6.3 1.5 4.3 2.25 8.95 2.25 13.95h3.15l4.35-2.85c5.2-3.5 9.9-6.4 14.1-8.7 4-2.2 7.1-3.3 9.3-3.3 4.2 0 6.3 2.1 6.3 6.3v2.1c-0.8 1-2.05 2.35-3.75 4.05-2.2 2.4-4.45 4.6-6.75 6.6-2.6 2.3-5.1 4.05-7.5 5.25v-1.05c0-1.2 0.25-2.45 0.75-3.75 0.3-0.7 1.1-2.1 2.4-4.2l2.25-3.75c-1.9 0-3.75 0.45-5.55 1.35-2.1 1.2-4.2 2.6-6.3 4.2-2.5 1.8-4.5 3.1-6 3.9-1.4 0.8-2.9 1.2-4.5 1.2-1.8 0-3.85-1.75-6.15-5.25z m19.95 19.8c2.3 4.6 3.45 8.75 3.45 12.45v25.35c0 1.1-0.15 1.7-0.45 1.8-0.4 0.3-0.95 0.45-1.65 0.45-1.7 0-4.15-0.9-7.35-2.7-3.2-1.9-5.9-4.05-8.1-6.45-2.4-2.6-3.6-4.85-3.6-6.75h1.05l11.7 6.3v-22.2c0-1.5-0.3-2.9-0.9-4.2-0.5-0.8-1.55-2.4-3.15-4.8-1-1.3-1.85-2.55-2.55-3.75-0.6-1.1-0.9-2.2-0.9-3.3l-0.15 0.3c0-1 0.25-1.65 0.75-1.95 0.6-0.3 1.45-0.45 2.55-0.45h1.05c3.3 2.2 6.05 5.5 8.25 9.9z m29.55 17.55v2.1c0 0.6-0.1 1.1-0.3 1.5-0.3 0.4-0.9 0.6-1.8 0.6-0.2 0-1.95-0.7-5.25-2.1-3.2-1.4-6.1-2.85-8.7-4.35-2.7-1.5-4.05-2.55-4.05-3.15l-0.15 0.15v-1.05l1.05-2.1h4.2c2.9 0 5.6 0.7 8.1 2.1 2.3 1.3 4.6 3.4 6.9 6.3zM463.45 545.75c0 2-2 3.35-6 4.05-4.1 0.8-9.55 1.4-16.35 1.8l-5.25 0.45c-11.2 0-22.15-2.1-32.85-6.3-1.5-0.3-3.45-1.25-5.85-2.85-2.8-1.6-4.75-2.4-5.85-2.4-1.8 0-3.4 0.7-4.8 2.1-1.4 1.4-3.1 3.55-5.1 6.45-2 3-3.85 5.35-5.55 7.05-1.6 1.6-3.5 2.4-5.7 2.4h-1.05c2.4-1.9 5.55-5.15 9.45-9.75 3.7-4.4 5.55-7.85 5.55-10.35v-1.05l-10.35-4.5c-17.9-7.4-26.85-11.6-26.85-12.6 0-0.9 0.2-1.5 0.6-1.8 0.5-0.3 1.05-0.45 1.65-0.45 2.1 0 4.5 0.4 7.2 1.2 1.7 0.5 5 1.75 9.9 3.75 1 0.5 3.1 1.35 6.3 2.55 0-1.4-0.15-2.85-0.45-4.35l-0.6-2.85c-0.7-2.4-1.05-4.65-1.05-6.75 0-8.2 0.85-17.65 2.55-28.35 1.8-10.4 4.1-18.95 6.9-25.65l2.7-0.9h1.05c-0.1 3.3-0.5 6.95-1.2 10.95l-1.8 9.9-0.75 3.9c-1 5.4-1.95 11.05-2.85 16.95-0.6 4-0.9 8.15-0.9 12.45 0 2 0.05 3.3 0.15 3.9l0.9 4.5c1.5-1.2 2.45-2.45 2.85-3.75 0.5-1.7 0.75-3.55 0.75-5.55l-0.15-6.6c0-5.7 1.4-10.9 4.2-15.6 2.9-4.9 8.55-9.55 16.95-13.95 1.4 0.8 2.1-0.65 2.1-4.35 0-1.8-0.2-3.05-0.6-3.75-0.4-0.6-1.6-1.45-3.6-2.55 0.4-1 0.8-1.6 1.2-1.8 0.4-0.2 1.05-0.3 1.95-0.3 2.4 0 4.25 0.8 5.55 2.4 1.3 1.6 2.25 3.95 2.85 7.05 4 0 6.45 0.05 7.35 0.15 1.5 0.2 3.1 0.7 4.8 1.5 1.8 0.9 2.7 2.5 2.7 4.8 0 3.5-0.95 6.5-2.85 9-1.8 2.4-4.65 5.3-8.55 8.7-3.7 3.3-6.25 5.85-7.65 7.65-1.5 1.8-2.7 3.85-3.6 6.15-1 2.2-2.05 5.15-3.15 8.85-1.1 3.6-2.25 6.9-3.45 9.9-1 2.5-2.55 4.8-4.65 6.9 3.3 5.1 9.55 8.5 18.75 10.2 9.6 1.7 18.95 2.55 28.05 2.55 2.7 0 4.9-0.05 6.6-0.15 4.2-0.2 6.1-0.3 5.7-0.3 4.7-0.4 8.75-0.6 12.15-0.6z m-103.2-97.5h-0.15l1.05-1.05c7-2.3 16.3-4.75 27.9-7.35 12.8-2.9 21.25-4.35 25.35-4.35 2.1 0 3.15 0.7 3.15 2.1 0 1.3-3.7 3-11.1 5.1-7.5 2.1-15.75 4.05-24.75 5.85-8.8 1.9-13.8 2.85-15 2.85h-4.35c-1.4-1.4-2.1-2.45-2.1-3.15z m31.2 78.9c1.7-2.8 3.05-6.1 4.05-9.9 1.1-3.9 1.65-6.55 1.65-7.95H394c0-1.1 1-2.65 3-4.65 1-1 2-2.2 3-3.6 0.7-1 1.2-2.15 1.5-3.45 0-0.6 0.2-1.35 0.6-2.25 0.4-1.1 0.6-1.8 0.6-2.1-2.3 0-4.35 0.9-6.15 2.7-1.8 1.8-3.15 3.95-4.05 6.45-1 2.4-1.5 4.65-1.5 6.75-0.6 0-1 0.05-1.2 0.15-0.2 0.1-0.5 0.15-0.9 0.15-0.5 0-1.2-0.45-2.1-1.35v-3.15c0-3.2 0.8-5.75 2.4-7.65 2-2.3 4.3-4.45 6.9-6.45 2.7-2.1 4.65-3.8 5.85-5.1 1.3-1.4 1.95-3.15 1.95-5.25-3 0-6.05 1.1-9.15 3.3-3 2.1-5.6 4.55-7.8 7.35l-0.45 0.15c-0.5 1.4-1.15 5.3-1.95 11.7-1.1 8-2.05 13.7-2.85 17.1-0.9 4.2-2.15 6.6-3.75 7.2 0.4 1.3 1.5 2.35 3.3 3.15 1.7 0.7 3.5 1.05 5.4 1.05 1.5 0 3.1-1.45 4.8-4.35z m-11.4-69.75l-0.15 0.15-0.6 0.3 0.75-0.45z m29.7 37.05c2.6-1.8 5-4.35 7.2-7.65 2.3-3.4 3.45-6.5 3.45-9.3l-1.05-1.05h-1.05c-1.2 0-2.5 1.05-3.9 3.15-1.3 2.1-2.4 4.55-3.3 7.35-0.9 2.8-1.35 4.95-1.35 6.45v1.05zM548.05 447.95L547 449c0-0.5 0.4-1 1.2-1.5 0.7-0.5 1.4-0.75 2.1-0.75h1.05c4.8 4.5 8.15 8.7 10.05 12.6 2 4 3 8.85 3 14.55 0 2.4-0.05 3.95-0.15 4.65 0 0.7 0.7 1.05 2.1 1.05 1.4 0 2.55-0.2 3.45-0.6l4.05-1.65c2.7-1.3 4.8-1.95 6.3-1.95 0.4 0 0.9 0.1 1.5 0.3 0.3 0.1 0.75 0.45 1.35 1.05l1.5 1.8c0 0.3-2.3 2.55-6.9 6.75l-9 8.4c-3 2.9-4.75 4.9-5.25 6-1.4 2-2.3 4.6-2.7 7.8-0.4 2.9-0.6 6.7-0.6 11.4 1.6 0 3.65-0.25 6.15-0.75l4.05-0.9c4.4-1.1 7.75-1.65 10.05-1.65 2.4 0 4.55 0.45 6.45 1.35 2 1.1 3 2.8 3 5.1s-1.3 4.5-3.9 6.6c-2.6 2-5.65 3.7-9.15 5.1-3.6 1.4-6.3 2.1-8.1 2.1 0-1.8 0.55-3.25 1.65-4.35 1-1 2.75-2.05 5.25-3.15s4.25-2.15 5.25-3.15c1.1-1.1 1.65-2.55 1.65-4.35v-1.05h-1.05c-0.8 0-3.1 0.3-6.9 0.9-4.2 0.8-7.6 1.65-10.2 2.55-3.2 1.1-4.95 2.05-5.25 2.85l-4.2 11.7v-8.55c-2.8 0-5.25 0.5-7.35 1.5-2.3 1.1-4.85 2.6-7.65 4.5-2.7 1.8-4.9 3.1-6.6 3.9-1.8 1.1-3.8 1.7-6 1.8-0.9 0-1.65-0.35-2.25-1.05-0.6-0.7-0.9-1.4-0.9-2.1v-2.1c3.6-3.2 7.85-7.6 12.75-13.2 3.9-4.6 9.1-10.85 15.6-18.75l2.55-3.3c0.9-0.9 1.5-2 1.8-3.3 0.3-1.4 0.45-3.1 0.45-5.1v-4.2c-6.9 3.4-11.85 5.5-14.85 6.3l-9.45 9.6h-1.05c-1.8 0-3.35-0.5-4.65-1.5-1.5-1.2-2.45-2.5-2.85-3.9l-1.2-4.05c-1.1-3.1-1.85-5.7-2.25-7.8-0.5-2.5-0.75-4.6-0.75-6.3 0-1 0.1-1.9 0.3-2.7 0.2-0.7 0.8-1.25 1.8-1.65 2-0.5 3.35 0.3 4.05 2.4 0.7 2.1 1.45 5.35 2.25 9.75 0.4 2.3 0.9 4.55 1.5 6.75 0.6 1.5 1.25 2.25 1.95 2.25 2 0 4.3-0.7 6.9-2.1 2.4-1.4 5.5-3.4 9.3-6 4.2-3 7.3-4.95 9.3-5.85v-5.25c0-4.7-0.65-8.85-1.95-12.45-1.4-3.8-3.05-7.55-4.95-11.25-1.7-3.2-2.55-5.25-2.55-6.15zM537.4 528.5h2.1c6.7-3 10.95-5.1 12.75-6.3 0.7 0 1.75-0.7 3.15-2.1l1.05-12.75h-1.05c-2.1 3.4-5.35 7.3-9.75 11.7-3.7 3.8-6.45 6.95-8.25 9.45z m26.55-39.15l6.3-6.45v-1.05c-2.1 0-3.65 0.65-4.65 1.95-1.1 1.4-1.65 3.25-1.65 5.55zM653.05 477.2l45.75-14.4 1.05-1.05c0.3-0.3 0.45-0.75 0.45-1.35 0-1.8-1.05-4.55-3.15-8.25-3.1-5.2-6.15-10.15-9.15-14.85-2.7-4.1-5.35-8.4-7.95-12.9-1.7-3.1-2.55-5.2-2.55-6.3 4.1 0 7.9 2.95 11.4 8.85 3.2 5.2 6.9 12.9 11.1 23.1 0.8 2 1.95 4.65 3.45 7.95 0.9 1.7 1.55 2.55 1.95 2.55 1.6 0 3.15-0.35 4.65-1.05l2.1-0.6c1.2-0.3 2.2-0.45 3-0.45 2.1 0 3.15 0.7 3.15 2.1 0 0.9-0.65 1.85-1.95 2.85-1.2 1-2.7 1.8-4.5 2.4-1.5 0.7-2.55 1.05-3.15 1.05V470c0 2.1 0.65 5.4 1.95 9.9 1.5 5.3 3.05 9.7 4.65 13.2 1.8 4.1 3.5 6.65 5.1 7.65l-1.05 1.05 8.4 17.1c4.3-2.8 6.45-11.65 6.45-26.55l1.05 1.05c0.4 0 1.25 0.55 2.55 1.65 1.2 1.2 1.8 2.05 1.8 2.55v6.45c0 2.5-0.3 4.75-0.9 6.75-0.6 1.9-1.55 4.1-2.85 6.6-1.8 3.5-3 6.45-3.6 8.85 0 1 2.4 5.55 7.2 13.65 4.7 8.1 7.65 12.75 8.85 13.95V536.9c1 1.3 2.85 6.85 5.55 16.65 2.7 9.8 4.05 15.25 4.05 16.35-0.8 1.4-1.5 2.1-2.1 2.1h-1.05c-1.4-1.4-2.1-2.45-2.1-3.15-1.5-2.1-5.4-8.65-11.7-19.65l-7.35-12.15c-0.2-0.3-0.55-1.1-1.05-2.4-0.5-1.3-1-2.35-1.5-3.15-0.4-0.7-0.95-1.05-1.65-1.05h-1.2c-2.2 2.8-4.95 5.4-8.25 7.8-3.7 2.6-6.95 3.9-9.75 3.9h-1.05l4.05-3.6c2.2-1.9 4.55-4.25 7.05-7.05s3.75-5.3 3.75-7.5c1.4 0 2.1-0.35 2.1-1.05-0.2-0.8-0.8-2.25-1.8-4.35l-2.4-4.8c-2-4.1-3.4-7.1-4.2-9-1.3-3.2-2.75-7.3-4.35-12.3-2.2-6.6-4.4-12.55-6.6-17.85-1.6-4-3.25-6-4.95-6-4.2 0-9.65 1.1-16.35 3.3-8.9 2.8-17.25 5.6-25.05 8.4l-3.45 0.15c-2.6 0-3.9-0.75-3.9-2.25v-1.05z m21.6 21.75l-0.3 0.15c-0.1-0.1-0.15-0.6-0.15-1.5 0-2.9 0.75-6.75 2.25-11.55 1.5-4.8 2.9-7.2 4.2-7.2h1.05l1.2 1.05v4.2c0 3.6-0.55 7.35-1.65 11.25-1 3.5-2.65 7.95-4.95 13.35-1.8 4.7-3.35 9.05-4.65 13.05-1 3.1-1.5 6.45-1.5 10.05v1.05c1.4-1.1 2.65-2.4 3.75-3.9 1.6-2.2 3.4-4.8 5.4-7.8 4-6.4 7.75-11.35 11.25-14.85s7.3-5.25 11.4-5.25c1.3 0 2.85 0.75 4.65 2.25 1.8 1.6 2.7 3.35 2.7 5.25 0 3.7-1.6 7.75-4.8 12.15-3.1 4.3-6.95 8.2-11.55 11.7-4.9 3.6-9 5.9-12.3 6.9v-2.1c1.8-1.2 4.75-3.65 8.85-7.35 3.2-2.9 6.15-6.35 8.85-10.35 2.5-3.7 3.75-7 3.75-9.9v-2.1c-3.8 0-7.3 1.4-10.5 4.2-3.2 2.6-6.15 6-8.85 10.2-3.6 5.7-6.5 10.6-8.7 14.7-2.9 5.3-4.85 8.65-5.85 10.05h-1.05c-1.2 0-2.2-0.25-3-0.75-0.9-0.6-1.35-1.4-1.35-2.4 0-2.6 0.35-4.65 1.05-6.15l0.6-1.35c0.2-0.5 0.4-1.15 0.6-1.95 0.3-1.7 1.9-7.55 4.8-17.55l2.7-9.45c1.3-4.3 2-7 2.1-8.1z m41.1-53.85l-0.15 0.3c0-0.9 0.35-1.5 1.05-1.8 0.7-0.3 1.75-0.45 3.15-0.45 2 0 4.55 0.3 7.65 0.9 3.3 0.6 6.2 1.5 8.7 2.7 2.6 1.3 3.9 2.9 3.9 4.8-5 0-10.4-0.4-16.2-1.2-5.4-0.9-8.1-2.65-8.1-5.25zM805.15 454.1c0.5 0 0.95 0.05 1.35 0.15 1.3 0.2 2.5 0.5 3.6 0.9 0.6 0.3 1.15 0.5 1.65 0.6 0.2 0 0.6 0.3 1.2 0.9 0.8 0.8 1.2 2.85 1.2 6.15 0 1.1-0.15 2.1-0.45 3-0.3 0.9-1.05 2.55-2.25 4.95-2 3.9-3 6.6-3 8.1 0 0.8 0.17 1.48 0.52 2.02 0.35 0.55 0.98 1.12 1.88 1.73 0.6 0.4 1.12 0.8 1.58 1.2 0.45 0.4 0.57 0.6 0.38 0.6-0.3 0-0.2 0.25 0.3 0.75 0.4 0.9 0.55 2.4 0.45 4.5-0.2 1.5-0.5 2.9-0.9 4.2-0.4 1.3-1.1 3.05-2.1 5.25-4.8 9.6-7.2 15.95-7.2 19.05 0 0.8 0.2 1.25 0.6 1.35 3.5 0.9 6.55 2.35 9.15 4.35 1.9 1.5 2.9 2.25 3 2.25 0.2 0 1.5-2.95 3.9-8.85 3.5-9.1 6.15-13.95 7.95-14.55 0.2-0.1 0.35 0 0.45 0.3 0.1 0.3 0.15 0.7 0.15 1.2 0 2.5-0.85 6.65-2.55 12.45-2 6.4-4.18 12.78-6.53 19.12-2.35 6.35-4.27 10.92-5.77 13.73-0.5 1-0.9 1.6-1.2 1.8-0.3 0.2-0.8 0.25-1.5 0.15-2-0.3-3-1.55-3-3.75 0-1.6 0.35-3.5 1.05-5.7 0.4-1 0.67-1.95 0.83-2.85 0.15-0.9 0.12-1.45-0.08-1.65-0.1-0.3 0-0.4 0.3-0.3 0.5 0.3 0.75 0 0.75-0.9l0.15-2.25c0-1.9-0.43-3.38-1.28-4.42-0.85-1.05-2.47-2.22-4.88-3.53-2-1.1-3.4-1.92-4.2-2.47-0.8-0.55-1.3-1.17-1.5-1.88-0.2-0.7-0.35-1.8-0.45-3.3v-1.65c0-1.2 0.05-1.75 0.15-1.65 0.3 0 0.45-0.2 0.45-0.6 0-0.5 1.55-3.95 4.65-10.35 2.3-4.5 3.7-7.52 4.2-9.08 0.5-1.55 0.75-3.32 0.75-5.32 0-1.6-0.2-2.65-0.6-3.15-0.4-0.5-1.15-0.8-2.25-0.9-1.2-0.1-2.43-0.47-3.67-1.12-1.25-0.65-2.08-1.32-2.47-2.02-0.2-0.3-0.3-0.85-0.3-1.65 0-1.7 0.5-3.1 1.5-4.2 1-1.4 2.3-3.72 3.9-6.98 1.6-3.25 2.4-5.32 2.4-6.22 0-0.9-0.5-2.35-1.5-4.35-1-2-1.5-3.35-1.5-4.05-0.01-0.71 0.24-1.06 0.74-1.06z m60.75-27.15c0-0.3 0.25-0.45 0.75-0.45 3.1 0 5.35 0.6 6.75 1.8 1.4 1.2 2.75 3.75 4.05 7.65 0.6 1.8 1.07 3 1.42 3.6 0.35 0.6 0.83 0.9 1.42 0.9 0.5 0 1.1-0.15 1.8-0.45 1.5-0.6 3.45-0.9 5.85-0.9 1.8 0 3.2 0.2 4.2 0.6 0.7 0.3 1.05 0.85 1.05 1.65 0 0.7-0.4 1.3-1.2 1.8-0.6 0.3-0.9 0.65-0.9 1.05 0.2 0.3 0.1 0.45-0.3 0.45s-2.1 0.65-5.1 1.95c-2.4 1.1-3.95 2.05-4.65 2.85-0.7 0.8-1.1 2.25-1.2 4.35l-0.15 1.35c0 0.5 0.12 0.88 0.38 1.12 0.25 0.25 0.72 0.58 1.42 0.98 1.6 0.7 2.4 1.95 2.4 3.75 0 1.5-0.55 3-1.65 4.5-0.3 0.4-0.53 0.83-0.67 1.27-0.15 0.45-0.18 0.78-0.08 0.98 0.2 0.3 0.1 0.45-0.3 0.45-0.6-0.2-1.45 0.7-2.55 2.7-1.1 2-1.7 3.7-1.8 5.1l-0.3 2.55 1.8-0.3c1.1 0 4.35-1.3 9.75-3.9 4.2-2.1 7.43-3.52 9.68-4.27s4.27-1.12 6.07-1.12c1.6 0 2.35 0.2 2.25 0.6-0.4 1-5.55 4.42-15.45 10.27-9.9 5.85-20.5 11.77-31.8 17.77-4.7 2.6-8.5 4.85-11.4 6.75-4.3 2.7-6.75 4.05-7.35 4.05-1.1 0-2.15-0.65-3.15-1.95-1-1.3-1.5-2.65-1.5-4.05 0-1 0.9-2.1 2.7-3.3 2.2-1.6 4.95-3.8 8.25-6.6 1.9-1.7 4.6-3.95 8.1-6.75 2-1.5 4.55-3.95 7.65-7.35l4.8-5.1-3.9-3.9c-1.1-1.1-2-2.05-2.7-2.85-0.7-0.8-1.05-1.45-1.05-1.95 0-0.4 0.35-1.05 1.05-1.95 0.5-0.5 1.8-1.35 3.9-2.55s4.15-2.15 6.15-2.85c1.1-0.5 1.82-1 2.17-1.5 0.35-0.5 0.52-1.3 0.52-2.4 0-0.8-0.4-1.2-1.2-1.2-1 0-2.6 0.35-4.8 1.05-3.4 1-6.25 1.5-8.55 1.5-3.3 0-4.9-1.25-4.8-3.75 0.2-0.8 0.45-1.37 0.75-1.73 0.3-0.35 1.1-0.72 2.4-1.12 2.8-0.8 5.05-1.3 6.75-1.5 3.5-0.8 5.45-1.25 5.85-1.35 0.9-0.3 1.5-0.57 1.8-0.82 0.3-0.25 0.47-0.77 0.53-1.58 0.05-0.8 0.08-1.9 0.08-3.3 0-0.9-0.1-1.62-0.3-2.18-0.2-0.55-0.65-1.37-1.35-2.48-0.5-0.8-1.1-1.72-1.8-2.77a46.89 46.89 0 0 1-1.65-2.62c-0.4-0.7-0.65-1.3-0.75-1.8-0.09-0.2-0.14-0.45-0.14-0.75z m24.3 64.35c2.4 0 4.35 0.75 5.85 2.25 0.5 0.6 0.83 1.27 0.98 2.02 0.15 0.75 0.22 2.28 0.22 4.57 0 4-0.7 9.15-2.1 15.45-1.4 6.3-3.03 11.98-4.88 17.03-1.85 5.05-3.43 7.88-4.73 8.47-0.2 0.1-0.6 0.15-1.2 0.15-0.8 0-1.53-0.13-2.17-0.38-0.65-0.25-0.97-0.58-0.97-0.98 0-0.3 0.65-1.55 1.95-3.75 2.5-4.1 4.52-9.3 6.07-15.6 1.55-6.3 2.33-12.55 2.33-18.75v-3.9l-1.65 0.45c-1.3 0.3-2.68 1.05-4.12 2.25a20.49 20.49 0 0 0-3.83 4.2c-1 1.4-1.85 3.1-2.55 5.1-0.7 2-0.9 3.3-0.6 3.9 0 0.2 0.25 0.45 0.75 0.75s1.1 0.55 1.8 0.75l2.4 0.75-0.15 3.45c-0.1 3.2-1.4 7.63-3.9 13.27-2.5 5.65-5.65 11.33-9.45 17.03-2.3 3.4-3.3 5.25-3 5.55 0.2 0.3 0.1 0.45-0.3 0.45-0.3-0.1-1.55 1.05-3.75 3.45-1.8 2.2-3.8 4.15-6 5.85-1.3 1-2.3 1.62-3 1.88-0.7 0.25-1.65 0.38-2.85 0.38h-2.7l4.2-4.35c2.1-2.1 3.92-4.18 5.48-6.23 1.55-2.05 3.22-4.63 5.02-7.72 1.2-2.1 2.7-4.3 4.5-6.6 3.9-5.3 5.85-8.3 5.85-9l-0.15-0.15-1.65 1.05c-1 1-1.85 1.5-2.55 1.5-0.5 0-1.05-0.3-1.65-0.9-0.5-0.7-0.75-1.7-0.75-3s0.05-2.45 0.15-3.45l0.6-13.5c0.4-7.1 0.8-12.3 1.2-15.6 0.1-1.1 0.42-2.3 0.97-3.6 0.55-1.3 1.12-2.2 1.72-2.7 0.7-0.5 1.3-0.75 1.8-0.75 1 0 1.75 0.65 2.25 1.95 0.1 0.4 0.15 1.25 0.15 2.55 0 2.6-0.25 5.3-0.75 8.1-0.1 0.8-0.13 1.3-0.08 1.5 0.05 0.2 0.27 0.15 0.68-0.15 0.6-0.6 1.7-2.4 3.3-5.4 1.3-2.5 2.7-4.62 4.2-6.38 1.5-1.75 2.8-2.72 3.9-2.92 1.61-0.19 2.66-0.29 3.16-0.29z m-18.23-12.82c-0.15-0.25-0.33-0.38-0.52-0.38-0.3 0-1.9 1.25-4.8 3.75s-4.75 4.2-5.55 5.1c-0.4 0.5-0.52 0.75-0.38 0.75 0.15 0 0.47-0.05 0.98-0.15 2.7-0.8 5.12-2.05 7.27-3.75 2.15-1.7 3.23-3.15 3.23-4.35 0-0.4-0.08-0.72-0.23-0.97z m-0.14-12.46c-0.15-0.05-0.33 0.23-0.53 0.83-0.1 0.2-0.15 0.43-0.15 0.67 0 0.25 0.1 0.43 0.3 0.53 0.4 0.2 0.6-0.1 0.6-0.9 0-0.7-0.08-1.07-0.22-1.13z m5.02 78.15c0.7-0.15 1.9-0.22 3.6-0.22 5.2 0 10.75 1.1 16.65 3.3 5.9 2.2 9.7 4.55 11.4 7.05 0.8 1.1 1.2 2.25 1.2 3.45 0 2.2-0.55 3.3-1.65 3.3-0.7 0-1.75-0.55-3.15-1.65-2.6-2-7.85-4.05-15.75-6.15-4.1-1-7.12-1.9-9.08-2.7-1.95-0.8-3.38-1.7-4.28-2.7-0.9-0.9-1.35-1.45-1.35-1.65 0-0.1 0.25-0.5 0.75-1.2 0.41-0.4 0.96-0.67 1.66-0.83z m0.6-25.57c0-0.6-0.05-1-0.15-1.2-0.4 0-0.9 1.35-1.5 4.05-0.6 2.7-0.9 4.8-0.9 6.3v2.1l0.9-1.65c0.5-1.1 0.95-3.1 1.35-6l0.3-3.6zM955.45 534.65l-0.3 0.3c0-2.4 0.65-4.55 1.95-6.45 1.3-1.9 3-2.85 5.1-2.85 1.6 0 2.75 0.65 3.45 1.95 0.8 1.2 1.2 2.8 1.2 4.8 0 1.7-0.7 3.25-2.1 4.65-1.5 1.5-3.1 2.25-4.8 2.25-1.7 0-2.85-0.35-3.45-1.05-0.7-0.7-1.05-1.9-1.05-3.6z m7.65-22.35l-1.2-6.9v-13.5l-0.15-10.05-0.15-7.2c-0.1-0.9-0.15-2.1-0.15-3.6 0-7.7 0.5-13.9 1.5-18.6l1.05-1.35c2 0 3.7 0.9 5.1 2.7 1.3 1.7 1.95 3.8 1.95 6.3 0 1.2-0.3 5.25-0.9 12.15l-0.3 3.15c-0.7 8.2-1.7 16.5-3 24.9-1.2 7.6-2.45 11.6-3.75 12z" p-id="38117"></path></svg>