<svg t="1734766228426" class="icon" viewBox="0 0 1024 1024" version="1.1" xmlns="http://www.w3.org/2000/svg"
    p-id="38417" width="20" height="20">
    <path
        d="M20.8 544h6.4c1.6-1.6 4.8-1.6 4.8-1.6 6.4-1.6 11.2-3.2 14.4-3.2h3.2c1.6 0 1.6 0 3.2-1.6 1.6 0 3.2-1.6 3.2-1.6 1.6 0 3.2-1.6 3.2-1.6 8 0 16-3.2 27.2-6.4h17.6c3.2 0 4.8-1.6 4.8-1.6v1.6l1.6 1.6-1.6 1.6v1.6h-4.8-1.6c-3.2 1.6-4.8 1.6-4.8 1.6H92.8c-1.6 0-3.2 1.6-4.8 1.6-4.8 0-6.4 1.6-9.6 1.6-8 1.6-12.8 3.2-16 4.8 0 0-1.6 0-3.2 1.6-1.6 0-6.4 1.6-14.4 4.8-3.2 0-4.8 1.6-4.8 1.6-3.2 1.6-4.8 1.6-8 1.6-3.2 1.6-4.8 1.6-6.4 1.6-6.4 0-9.6-1.6-12.8-3.2-1.6 0-1.6 0-1.6-1.6v-3.2H16l4.8-1.6z m33.6-59.2h3.2l1.6-1.6v-1.6-6.4-4.8-3.2-1.6-1.6c0-1.6 0 0 0 0v-4.8l-1.6-4.8v-1.6l-1.6-1.6V448h-1.6v-1.6c-1.6-1.6-1.6-3.2-1.6-3.2 1.6-1.6 1.6-1.6 3.2-1.6s3.2 1.6 6.4 6.4c3.2 1.6 3.2 3.2 4.8 4.8V481.6c0 1.6 0 3.2 1.6 3.2 0 0 3.2 0 6.4-1.6s11.2-4.8 24-9.6h6.4l1.6-1.6s1.6-1.6 3.2-1.6 1.6 1.6 3.2 3.2c1.6 0 1.6 1.6 1.6 1.6 0 1.6 0 1.6-1.6 3.2 0 0-1.6 0-3.2 1.6-1.6 0-4.8 1.6-11.2 3.2-12.8 0-19.2 1.6-19.2 3.2 0 0-1.6 0-1.6 1.6s-3.2 1.6-6.4 3.2c-1.6 0-3.2 1.6-4.8 1.6s-1.6 0-3.2 3.2V505.6s-1.6 1.6-1.6 4.8c-1.6 1.6 0 1.6 1.6 1.6 0 0 3.2 0 4.8-1.6 3.2-1.6 4.8-1.6 6.4-1.6l4.8-1.6h3.2c1.6 0 3.2 0 3.2-1.6 1.6 0 1.6 0 3.2-1.6 4.8-1.6 6.4-1.6 8-3.2 3.2-1.6 4.8-1.6 4.8-1.6h6.4c1.6 0 4.8 1.6 6.4 3.2 1.6 1.6 3.2 1.6 4.8 1.6 1.6 1.6 3.2 3.2 3.2 4.8l1.6 1.6v8l-1.6 3.2v3.2l-1.6 3.2c0 3.2 0 4.8-1.6 6.4 0 1.6-1.6 3.2-1.6 4.8v6.4c0 1.6-1.6 1.6-1.6 3.2 0 0 0 3.2-1.6 6.4s-3.2 4.8-4.8 9.6l-3.2 6.4-3.2 4.8-4.8 1.6c-1.6 0-3.2-1.6-4.8-3.2l-3.2-1.6-3.2-3.2c-4.8-3.2-8-4.8-8-4.8 1.6-3.2 0-4.8 0-4.8s1.6-1.6 3.2-1.6h3.2v1.6H91.2c1.6 1.6 4.8 3.2 4.8 3.2s1.6 1.6 3.2 1.6h1.6v-1.6l1.6-1.6V560l1.6-1.6v-1.6c1.6-1.6 1.6-3.2 1.6-3.2 0-1.6 0-3.2 1.6-4.8l1.6-1.6V544c3.2-3.2 3.2-4.8 3.2-4.8v-3.2l1.6-3.2v-9.6c0-3.2 0-4.8 1.6-6.4v-3.2c0-1.6 0-3.2-1.6-4.8-1.6-1.6-1.6-1.6-4.8-1.6-3.2-1.6-4.8-3.2-4.8-1.6-3.2 0-3.2 1.6-4.8 1.6h-1.6H96l-12.8 4.8h-8c-1.6 0-4.8 0-6.4 1.6-4.8 1.6-8 1.6-11.2 1.6-3.2 0-4.8-1.6-4.8-3.2 0 0 0-3.2 1.6-6.4 0-3.2 1.6-6.4 1.6-9.6 0-3.2 1.6-4.8 1.6-6.4l-3.2-1.6s-1.6 0-1.6-1.6v-1.6c0 1.6 1.6 0 1.6 0zM148.8 502.4l1.6-1.6 1.6-1.6 3.2-3.2v-1.6h1.6c0-1.6 1.6-3.2 3.2-4.8l1.6-1.6s1.6-1.6 1.6-3.2c0 0 1.6-1.6 1.6-3.2 3.2-3.2 4.8-6.4 6.4-9.6l1.6-4.8 1.6-1.6 1.6-4.8c0-1.6 1.6-1.6 1.6-3.2v-3.2l1.6-4.8v-3.2-1.6s0-1.6-1.6-3.2c-1.6-3.2-1.6-4.8-1.6-4.8 0-1.6 1.6-3.2 3.2-3.2l1.6 1.6v1.6c1.6 1.6 3.2 4.8 3.2 6.4V448c0 1.6 1.6 3.2 1.6 3.2s0 1.6-1.6 3.2c0 0 0 1.6-1.6 4.8l-1.6 1.6v1.6l-3.2 4.8-3.2 12.8c-3.2 3.2-4.8 4.8-4.8 6.4v1.6h1.6s1.6 0 1.6 1.6 1.6 3.2 1.6 3.2 1.6 1.6 1.6 3.2v1.6c0 1.6 0 3.2-1.6 3.2 0 3.2-1.6 4.8-1.6 6.4V532.8c-1.6 1.6-1.6 1.6-3.2 1.6s-1.6 0-3.2-1.6V528c0-1.6 0-3.2-1.6-3.2s0-1.6 0-1.6V512l1.6-3.2v-8s1.6-1.6 1.6-3.2c0 0 0-1.6-1.6-3.2v-1.6-1.6l-4.8 4.8H160s0 1.6-1.6 3.2v1.6l-1.6 1.6s-3.2 3.2-8 6.4l-1.6 1.6c-1.6 0-1.6 1.6-3.2 1.6h-1.6c-1.6 0-3.2 1.6-3.2 1.6s-1.6 0-1.6-1.6l3.2-3.2h1.6l4.8-3.2c0-1.6 1.6-1.6 1.6-3.2z m35.2-17.6l1.6-3.2 3.2-6.4c0-1.6 1.6-4.8 1.6-8v-1.6l3.2-6.4 1.6-1.6v-6.4l1.6-1.6v-3.2 1.6l1.6-1.6v-8c0-1.6-1.6-1.6-1.6-1.6l1.6-3.2c3.2 0 4.8 1.6 6.4 1.6l1.6 1.6v1.6c0 1.6-1.6 3.2-1.6 4.8V448l-1.6 4.8c0 1.6 0 1.6-1.6 3.2-1.6 4.8-3.2 6.4-4.8 8-1.6 1.6-1.6 3.2-1.6 4.8V473.6c0 1.6-1.6 1.6-1.6 3.2v1.6l-1.6 1.6h1.6l1.6-1.6c1.6 0 1.6 0 1.6-1.6l3.2-1.6c0-1.6 1.6-1.6 1.6-1.6 1.6 0 1.6-1.6 1.6-1.6l3.2-3.2 1.6-1.6c1.6-1.6 3.2-1.6 3.2-3.2 1.6-1.6 3.2-1.6 4.8-3.2h1.6s1.6-1.6 4.8-1.6c1.6 0 3.2-1.6 3.2-1.6h3.2c3.2-1.6 4.8-1.6 6.4-1.6h12.8s1.6 0 1.6 1.6c1.6 1.6 3.2 3.2 3.2 4.8l-3.2 3.2c-1.6 1.6-3.2 1.6-3.2 1.6 0 1.6-1.6 1.6-3.2 3.2 0 0-1.6 0-1.6 1.6-1.6 1.6-3.2 1.6-4.8 3.2-3.2 1.6-4.8 3.2-6.4 4.8 0-1.6-1.6-1.6-1.6-1.6s0-1.6 1.6-3.2l3.2-1.6 3.2-1.6 4.8-4.8 1.6-1.6 1.6-1.6s1.6 0 1.6-1.6l-6.4 3.2h-4.8l-1.6-1.6h-1.6l-9.6 3.2c-1.6 0-4.8 1.6-4.8 3.2l-3.2 1.6c-4.8 3.2-6.4 4.8-9.6 6.4 0 0-1.6 1.6-3.2 1.6l-3.2 3.2-3.2 1.6-1.6 1.6-1.6 3.2-1.6 1.6s-1.6 1.6-1.6 3.2l-3.2 1.6h-3.2v-1.6-1.6-1.6-1.6c1.6-3.2 1.6-4.8 1.6-4.8z m4.8 36.8v-3.2c0-1.6 1.6-3.2 1.6-4.8v-3.2-3.2c1.6-1.6 1.6-3.2 3.2-3.2s1.6 0 1.6 1.6v6.4c-1.6 1.6-1.6 3.2-1.6 3.2 0 3.2 0 4.8-1.6 4.8v6.4c0 3.2 0 4.8-1.6 4.8h-1.6l-1.6-1.6v-3.2l1.6-4.8z m16 12.8c0-1.6 1.6-1.6 0 0 3.2 0 3.2 0 4.8 1.6 0 1.6 1.6 3.2 1.6 3.2l1.6 1.6c0-3.2 1.6-4.8 1.6-4.8v-3.2-4.8c0-3.2 1.6-4.8 1.6-4.8 0-1.6 0-3.2-1.6-6.4v-1.6-8-17.6c0-1.6-1.6-1.6-1.6-3.2-1.6-1.6-1.6-3.2-1.6-3.2v-1.6-1.6h1.6l3.2 1.6 1.6 1.6c1.6 1.6 3.2 4.8 3.2 4.8V504h1.6l1.6 1.6h4.8c1.6 0 3.2 0 4.8 1.6h4.8l1.6 1.6h1.6s1.6 0 3.2 1.6c1.6 0 3.2 1.6 4.8 1.6 3.2 1.6 4.8 1.6 6.4 3.2 0 0 0 1.6 1.6 1.6l3.2 3.2 1.6 1.6v8l-1.6 1.6c-1.6 0-3.2 0-3.2-1.6L256 528l-1.6-1.6v-1.6s-1.6-1.6-4.8-1.6c-1.6-1.6-3.2-1.6-4.8-1.6-1.6-1.6-3.2-1.6-4.8-3.2l-4.8-1.6-4.8-1.6-1.6-3.2H224c0 1.6-1.6 1.6-1.6 1.6v24l-1.6 6.4-1.6 3.2s-1.6 1.6-3.2 1.6h-1.6l-1.6-1.6s-1.6 0-1.6-1.6-3.2 0-3.2 0l-1.6-1.6c0-1.6-1.6-1.6-1.6-1.6-1.6-1.6-1.6-3.2-1.6-3.2 0-1.6 0-1.6-1.6-3.2l3.2-1.6c-1.6 0-1.6 0 0 0zM257.6 484.8l1.6-1.6 8 1.6H272l8-1.6h3.2c1.6 0 3.2 0 4.8-1.6h1.6s1.6 0 3.2-1.6h8c1.6 0 1.6 0 3.2-1.6 1.6 0 3.2 0 6.4-1.6H336l3.2 1.6c1.6 0 3.2 0 4.8 1.6h3.2c1.6 0 3.2 1.6 3.2 1.6s0 1.6 1.6 1.6v1.6c0 1.6 0 1.6-1.6 1.6h-3.2H334.4v-1.6-1.6s1.6 0 1.6-1.6H294.4c-3.2 0-4.8 1.6-6.4 1.6v4.8c-8 0-12.8 1.6-16 3.2h-4.8c-3.2 0-4.8 0-8-1.6H256c0-1.6 1.6-3.2 1.6-4.8zM361.6 512l6.4-3.2c3.2-1.6 4.8-3.2 4.8-3.2 3.2-1.6 3.2-3.2 3.2-3.2l1.6-1.6 4.8-4.8c1.6-1.6 1.6-3.2 1.6-4.8v-1.6s0-1.6 1.6-1.6v-1.6l1.6-3.2v-6.4l1.6-1.6-4.8 3.2s-1.6 0-3.2 1.6c-3.2 1.6-4.8 1.6-6.4 1.6H368c-1.6 0-3.2 0-4.8-1.6v-1.6c0-1.6 0-3.2 1.6-3.2h3.2s1.6 0 4.8-1.6h1.6c1.6 0 4.8-1.6 8-3.2l4.8-1.6c1.6 0 3.2-1.6 3.2-1.6l9.6-3.2c0-1.6-1.6-1.6-1.6-1.6s0-1.6 1.6-1.6v-4.8-4.8c-1.6 0-4.8 1.6-8 3.2-1.6 1.6-3.2 1.6-3.2 1.6h-1.6l-1.6-1.6H384v-1.6-1.6s0-1.6 1.6-1.6h1.6s0 1.6 1.6 1.6c0 1.6 1.6 1.6 3.2 1.6 0 0 1.6 0 3.2-1.6h1.6c1.6 0 3.2-1.6 4.8-1.6 1.6 0 1.6-1.6 3.2-1.6 0 0 1.6 0 1.6-1.6v-1.6-1.6-1.6-1.6-3.2l1.6-4.8v-1.6c1.6-1.6 1.6-3.2 1.6-4.8v-1.6-1.6h-1.6l-1.6-1.6h-1.6v-1.6h-1.6v-1.6c0-1.6 0-1.6 1.6-1.6h1.6c1.6 0 1.6 1.6 3.2 3.2 3.2 0 4.8 1.6 6.4 6.4v3.2l-3.2 9.6 1.6 3.2h3.2l1.6-1.6h1.6c1.6 1.6 1.6 3.2 1.6 3.2v1.6s-1.6 0-3.2 1.6H416h-1.6l-3.2 3.2V448v11.2l1.6-1.6 1.6-1.6c3.2-1.6 4.8-1.6 4.8-1.6h1.6l1.6 3.2c0 1.6 0 1.6-1.6 1.6h-1.6s-1.6 0-1.6 1.6c0 0-1.6 0-3.2 1.6-1.6 0-1.6 1.6-3.2 3.2l-1.6 1.6v1.6h-1.6v4.8h1.6c1.6 0 3.2 0 4.8-1.6h1.6c1.6 0 3.2-1.6 3.2-1.6s1.6 0 1.6 1.6v3.2h-9.6l-4.8 4.8v8c0 1.6 0 0 0 0v1.6c0 1.6 0 1.6 1.6 1.6H412.8c3.2 1.6 4.8 3.2 6.4 3.2 1.6 1.6 3.2 3.2 6.4 3.2l1.6 1.6s1.6 1.6 3.2 1.6 1.6 1.6 1.6 1.6c1.6 0 1.6 1.6 3.2 1.6h1.6l1.6 1.6h3.2c3.2 1.6 4.8 3.2 4.8 3.2H472c1.6 0 1.6 1.6 1.6 1.6v1.6s-1.6 0-3.2 1.6c-3.2 1.6-4.8 1.6-4.8 1.6h-19.2c-1.6 0-3.2-1.6-4.8-1.6-1.6 0-1.6 0-1.6-1.6s-1.6-1.6-3.2-1.6l-4.8-3.2c-1.6-1.6-3.2-1.6-3.2-3.2 0 0-1.6 0-1.6-1.6l-3.2-1.6c-1.6 0-1.6-1.6-3.2-1.6-1.6-1.6-1.6-1.6-3.2-1.6 0 0-1.6-1.6-3.2-1.6l-3.2 1.6-1.6-1.6h-1.6l-1.6-1.6s-1.6 0-1.6-1.6l-1.6-1.6h-1.6l-6.4-1.6-3.2-3.2 3.2-1.6H400s1.6 1.6 3.2 1.6v-1.6l-1.6-4.8v-8-1.6-1.6s-3.2 1.6-8 4.8l-1.6 1.6s-1.6 0-1.6 1.6l1.6 1.6h1.6c1.6 1.6 1.6 1.6 1.6 3.2V486.4c0 1.6-1.6 1.6-1.6 1.6-1.6 1.6-1.6 3.2-1.6 3.2v1.6h-1.6c0 1.6-1.6 1.6-1.6 3.2 0 0-1.6 1.6-3.2 4.8-1.6 1.6-3.2 4.8-4.8 6.4l-1.6 1.6c-1.6 3.2-8 6.4-16 6.4V512h-1.6z m60.8-60.8l1.6-1.6s1.6 0 1.6 1.6h1.6c1.6 0 3.2 0 4.8-1.6h1.6c1.6-1.6 3.2-1.6 4.8-3.2l1.6-1.6h1.6l1.6-1.6h3.2c1.6-1.6 3.2-1.6 3.2-1.6h1.6l1.6 3.2c0 1.6 1.6 3.2 1.6 3.2V452.8H448v1.6l-1.6 1.6c-1.6 1.6-3.2 4.8-4.8 4.8l1.6 3.2-1.6 1.6h-1.6c-1.6 0-1.6 1.6-3.2 1.6-3.2 1.6-4.8 3.2-6.4 3.2h-1.6s0 1.6-1.6 1.6v1.6c0 1.6 0 1.6 1.6 3.2h14.4c1.6 0 1.6-1.6 1.6-1.6H454.4v-1.6l1.6-1.6 3.2-3.2c0 1.6 1.6 1.6 1.6 1.6-1.6 1.6-1.6 3.2-1.6 4.8v1.6s0 1.6-1.6 1.6h-12.8s-1.6 0-3.2 1.6h-1.6-3.2c-1.6 0-3.2 0-6.4-1.6h-1.6c-1.6 0-3.2 0-3.2-1.6s-1.6-3.2-1.6-3.2v-4.8-1.6-1.6l1.6-1.6v-8l1.6-1.6h1.6l1.6 1.6v4.8c1.6 0 3.2-1.6 4.8-3.2l1.6-1.6 1.6-1.6 3.2-3.2c1.6-1.6 1.6-1.6 3.2-4.8 1.6-1.6 1.6-3.2 1.6-3.2v-1.6h-1.6l-1.6 1.6h-3.2c-3.2 1.6-4.8 3.2-4.8 3.2-1.6 0-3.2 1.6-4.8 1.6-1.6 0-1.6-1.6-1.6-1.6-1.6 0-1.6 0-1.6-1.6l-4.8 6.4zM465.6 488l3.2-4.8 4.8-8v-1.6s1.6-1.6 1.6-3.2 1.6-1.6 1.6-3.2v-1.6l1.6-1.6v-3.2c0-1.6 1.6-3.2 3.2-6.4 0-1.6 1.6-3.2 1.6-4.8 0 0 0-1.6 1.6-3.2 0 0 0-1.6 1.6-3.2l1.6-4.8v-1.6c1.6-4.8 3.2-6.4 3.2-8v-8l-1.6-4.8v-1.6l1.6-1.6 3.2 3.2c0 1.6 1.6 3.2 1.6 3.2v16c0 1.6 0 3.2-1.6 3.2 0 0-1.6 1.6-1.6 3.2v3.2c0 1.6 0 1.6-1.6 3.2l-4.8 12.8-3.2 3.2c-1.6 3.2-3.2 8-6.4 12.8-1.6 1.6-1.6 3.2-3.2 3.2-1.6 1.6-1.6 3.2-3.2 3.2l-1.6 1.6-1.6 1.6s-1.6 0-1.6 1.6c1.6 0 0 1.6 0 0l-1.6 1.6 1.6-1.6z m22.4-22.4l4.8-3.2 4.8-3.2 4.8-4.8s1.6-1.6 3.2-1.6c1.6-1.6 3.2-1.6 3.2-1.6h1.6l1.6 1.6s0 1.6 1.6 3.2v3.2s0 1.6-1.6 1.6v6.4c0 1.6-1.6 3.2-1.6 4.8-1.6 1.6-1.6 1.6-1.6 3.2l-1.6 1.6-1.6 1.6v1.6h-1.6s-1.6 0-3.2-1.6v-1.6-1.6h3.2s0-1.6 1.6-1.6l1.6-1.6v-3.2l1.6-3.2V464c1.6-3.2 1.6-4.8 1.6-4.8l-4.8 1.6c-4.8 4.8-8 6.4-11.2 8-3.2 1.6-4.8 3.2-4.8 3.2s-1.6 1.6-3.2 1.6-1.6 0-1.6-1.6c0 0 0-1.6 1.6-1.6 1.6-3.2 1.6-3.2 1.6-4.8z m4.8 14.4c-1.6 3.2-1.6 4.8-1.6 6.4 0 1.6 1.6 3.2 4.8 4.8 1.6 0 1.6 1.6 1.6 0h1.6c1.6 0 1.6 0 4.8-1.6h1.6c1.6 0 3.2-1.6 4.8-1.6h3.2s1.6 0 1.6-1.6h1.6l1.6-1.6c1.6 0 3.2-1.6 3.2-1.6 1.6 0 1.6-1.6 1.6-4.8 0 0 0-1.6 1.6-1.6s1.6 0 1.6 1.6v3.2c0 1.6-1.6 3.2-1.6 4.8h-1.6s-1.6 0-3.2 1.6h-1.6l-6.4 3.2-6.4 4.8h-6.4-1.6-8c-1.6 0-3.2-1.6-3.2-4.8v-3.2-1.6-3.2-3.2c0-1.6 1.6-3.2 1.6-3.2v-1.6s0-1.6 1.6-3.2c0-1.6 1.6-1.6 1.6-1.6h1.6l1.6 1.6v1.6c-1.6 4.8-1.6 6.4-1.6 6.4z m20.8-38.4c1.6 0 1.6 1.6 0 0 1.6 1.6 1.6 3.2 1.6 3.2v1.6l-1.6 1.6h-6.4-8c-1.6 0-3.2 0-3.2-1.6v-1.6c0-1.6 1.6-1.6 4.8-1.6h6.4c4.8-1.6 4.8-1.6 6.4-1.6z m12.8 14.4v-4.8l1.6-1.6V448v-1.6l1.6-1.6s1.6 0 1.6 1.6l1.6 3.2v16l-1.6 1.6c-1.6 0-1.6-1.6-1.6-3.2V459.2c-3.2-1.6-1.6-1.6-3.2-3.2z m11.2 38.4l3.2 4.8c1.6 0 1.6 1.6 1.6 1.6 1.6 0 1.6 1.6 1.6 1.6h1.6l1.6-4.8V496 473.6v-1.6-3.2-3.2-1.6-6.4-24-4.8s0-1.6-1.6-3.2c0 0 0-1.6-1.6-1.6v-1.6l1.6-1.6s1.6 0 3.2 1.6v1.6l1.6 1.6v17.6l-1.6 4.8v35.2-3.2 27.2c0 1.6-1.6 3.2-3.2 3.2H544c-3.2-1.6-4.8-3.2-4.8-3.2v-1.6c-1.6 0-1.6-1.6-3.2-3.2 0-1.6-1.6-1.6-1.6-3.2 0 0 0-1.6-1.6-1.6V492.8l4.8 1.6c-1.6-1.6 0-1.6 0 0zM686.4 448v-3.2l-3.2 3.2s-1.6 0-3.2 1.6h-1.6s-1.6 0-1.6-1.6v-1.6s1.6 0 1.6-1.6H683.2l1.6-1.6 1.6-1.6h1.6l3.2-6.4H688v1.6h-1.6c-1.6 0-1.6 0-3.2 1.6h-1.6c-1.6 0-1.6 0-3.2-1.6l-1.6-1.6s0-1.6 1.6-1.6l4.8-1.6v-1.6l1.6-1.6 1.6-1.6 1.6-1.6 1.6-1.6 4.8-4.8 3.2-3.2h1.6l1.6-1.6h1.6l-1.6-1.6v-1.6-1.6h1.6l1.6 1.6 3.2 3.2v3.2h-1.6l-1.6 1.6-3.2 3.2s-1.6 0-1.6 1.6l-6.4 6.4-6.4 1.6h1.6l3.2-1.6 4.8-1.6 1.6-1.6v-1.6s1.6 0 1.6-1.6h1.6c1.6 0 1.6 0 1.6 1.6v1.6h-1.6l-3.2 1.6c-1.6 0-3.2 1.6-3.2 3.2 0 0-1.6 1.6-1.6 3.2l-1.6 1.6c1.6 0 3.2-1.6 4.8-1.6h1.6c1.6 0 1.6 0 3.2 1.6v1.6s0 1.6-1.6 1.6v1.6h-1.6l-1.6 3.2-4.8 3.2v1.6s1.6 1.6 3.2 1.6H699.2s1.6 0 1.6 1.6v1.6l-1.6 1.6h-1.6l-3.2 1.6h-1.6c-1.6 1.6-3.2 1.6-3.2 1.6s0 1.6-1.6 3.2V467.2c0 1.6 0 1.6-1.6 1.6v1.6l-1.6 1.6c0 1.6 1.6 1.6 3.2 1.6h3.2l1.6 1.6h1.6c1.6 0 3.2 0 4.8 1.6 0 0 1.6-1.6 1.6-3.2l1.6-3.2 1.6-1.6 3.2-3.2V464H704c-1.6 0-1.6 0-1.6-1.6v-1.6c0-1.6 1.6-1.6 1.6-1.6h3.2c1.6 0 1.6-1.6 3.2-1.6l4.8-1.6c1.6 1.6 1.6 1.6 1.6 3.2v1.6l-1.6 1.6c-1.6 3.2-3.2 4.8-4.8 8 0 1.6-1.6 1.6-3.2 3.2l-1.6 1.6h8c1.6 0 1.6 1.6 3.2 1.6s1.6 0 1.6 1.6H723.2l1.6 1.6 3.2 1.6 1.6 1.6c3.2 1.6 4.8 1.6 4.8 4.8h1.6l1.6 1.6h1.6v1.6h-1.6c-1.6 0-1.6 0-3.2-1.6l-3.2-3.2s-1.6-1.6-3.2-1.6c-1.6-1.6-4.8-3.2-4.8-4.8-3.2-1.6-4.8-3.2-6.4-3.2h-1.6s-1.6 0-3.2-1.6H707.2l-3.2 4.8-3.2 3.2-1.6 1.6h-1.6v-1.6l-1.6-1.6 1.6-1.6 1.6-1.6h-1.6-11.2c-3.2 1.6-4.8 3.2-4.8 4.8l-3.2 3.2-1.6 1.6-3.2 1.6s-3.2 1.6-6.4 1.6c-1.6 0-1.6 0-3.2 1.6-1.6 0-3.2-1.6-3.2-1.6l-3.2-1.6v-1.6c0-1.6 0-1.6 1.6-1.6 0 0 1.6 0 3.2 1.6h3.2c1.6 0 3.2 0 6.4-1.6 1.6 0 3.2-1.6 3.2-1.6h1.6l1.6-1.6h1.6l1.6-1.6s0-1.6 1.6-1.6l1.6-1.6-1.6-1.6c-1.6 0-1.6 0-3.2-1.6h-16l-1.6-3.2H686.4l3.2-3.2v-1.6c0-1.6 1.6-3.2 1.6-3.2 0-1.6 0-1.6-1.6-1.6H688c-1.6 0-1.6 0-3.2 1.6-1.6 0-1.6 1.6-3.2 1.6s-3.2 1.6-4.8 1.6c0 0-1.6 0-1.6-1.6V464l4.8-3.2c1.6 0 1.6-1.6 3.2-1.6l1.6-1.6v-1.6-1.6l1.6-6.4z m-11.2-28.8c1.6 0 1.6 0 0 0 1.6 0 3.2 0 3.2 1.6H683.2l1.6-1.6 3.2-4.8h1.6v3.2c0 1.6 0 1.6-1.6 3.2l-1.6 1.6-1.6 1.6-1.6 1.6h-1.6l-3.2-1.6c-3.2-1.6-3.2-3.2-3.2-4.8z m11.2 36.8h3.2-3.2z m4.8-9.6l3.2-3.2 1.6-1.6s-1.6 0-3.2 1.6c0 0-1.6 0-1.6 1.6v1.6zM750.4 452.8s1.6 0 0 0l4.8-1.6h1.6l1.6-1.6 1.6-1.6V443.2c0-1.6 0-3.2 1.6-4.8V433.6c0-1.6 0-3.2 1.6-4.8v-1.6c1.6-1.6 1.6-1.6 1.6-3.2 0 0 0-1.6-1.6-4.8V416h-3.2v-4.8c1.6 0 1.6 0 3.2 1.6v1.6s0 1.6 1.6 3.2v8c0 1.6-1.6 3.2-1.6 4.8v9.6c0 1.6 0 3.2-1.6 4.8v3.2h1.6l1.6-1.6h6.4l-1.6-1.6s0-1.6 1.6-1.6l1.6 1.6 1.6 3.2 1.6-1.6h3.2l1.6 1.6s0 1.6-1.6 1.6h-1.6s-1.6 0-1.6 1.6v11.2l-4.8 8v3.2s1.6 1.6 3.2 1.6l4.8 4.8c0 1.6 1.6 1.6 1.6 1.6l1.6 1.6 1.6 1.6c1.6 1.6 1.6 3.2 1.6 3.2s0 1.6 1.6 3.2V496h-1.6c-1.6 0-1.6 0-3.2-1.6 0-1.6-1.6-3.2-1.6-4.8l-1.6-1.6-3.2-3.2c-1.6-1.6-3.2-1.6-4.8-3.2s-1.6-1.6-3.2-1.6h-1.6l-3.2 4.8c-1.6 0-1.6 0-1.6 1.6-1.6 0-1.6 1.6-1.6 1.6h-3.2c-1.6 0-3.2 1.6-6.4 1.6h-3.2H742.4l-1.6-1.6 3.2-1.6h3.2l4.8-1.6h3.2c3.2-1.6 4.8-1.6 4.8-1.6v-1.6-1.6c-3.2-1.6-4.8-1.6-6.4-1.6 0 0-1.6 0-1.6-1.6v-1.6-1.6s0-1.6 1.6-1.6V467.2v-1.6H752c-1.6 0-3.2 1.6-4.8 1.6-1.6 0-1.6 0-3.2 1.6h-1.6c-1.6 1.6-3.2 1.6-4.8 1.6H736l-3.2-3.2 1.6-1.6H745.6c1.6-11.2 3.2-11.2 4.8-12.8z m8 9.6c1.6 1.6 1.6 1.6 3.2 1.6s1.6 1.6 3.2 1.6h1.6l6.4-9.6 1.6-8c-1.6 0-4.8 3.2-9.6 4.8l-1.6 1.6c0 1.6 0 1.6-1.6 1.6-1.6 1.6-3.2 3.2-3.2 6.4z m16-1.6h1.6v1.6h8c1.6 0 4.8-1.6 4.8-1.6H793.6l3.2-1.6H801.6V449.6v-3.2c1.6 0 3.2 1.6 3.2 4.8 1.6 3.2 1.6 4.8 1.6 6.4l12.8-3.2h6.4c1.6 0 1.6 0 1.6 1.6 0 0 0 1.6 1.6 1.6v1.6h-3.2-3.2-9.6c-1.6 0-3.2 0-3.2 1.6V475.2c0 1.6 0 0 0 0V484.8l-1.6 4.8v1.6l-1.6 1.6h-1.6l-1.6-1.6-3.2-1.6-1.6-1.6s0-1.6 1.6-1.6l8 1.6V480v-1.6-1.6-11.2c0-1.6-1.6-3.2-1.6-3.2h-1.6s-1.6 0-3.2 1.6c-1.6 0-3.2 0-3.2 1.6s-1.6 0-1.6 0h-3.2-1.6-1.6-1.6-1.6-1.6c-1.6 0-3.2 0-4.8-1.6-1.6 0-1.6-1.6-1.6-3.2-6.4 1.6-4.8 0-4.8 0z m12.8-27.2s1.6 0 3.2-1.6c1.6 0 1.6-1.6 3.2-1.6s3.2-1.6 3.2-1.6l4.8-1.6 1.6-1.6h1.6c1.6 0 3.2 1.6 4.8 1.6 1.6 1.6 1.6 1.6 1.6 3.2 0 0 0 1.6-1.6 1.6l-1.6 1.6h-1.6l-3.2 4.8h-1.6c-1.6 0-1.6 1.6-3.2 1.6h-1.6v-1.6s0-1.6 1.6-1.6l3.2-4.8 1.6-3.2s-1.6 0-1.6-1.6H800s-1.6 0-3.2 1.6h-1.6c-1.6 0-1.6 1.6-1.6 1.6-1.6 0-1.6 1.6-3.2 1.6l-1.6 1.6h-1.6-1.6V432l1.6 1.6c-1.6 1.6 0 1.6 0 0zM828.8 484.8l3.2 1.6h3.2l4.8-1.6h12.8l4.8-1.6h1.6l3.2-1.6H875.2c1.6 0 3.2-1.6 4.8-1.6h14.4l3.2 1.6h6.4c1.6 0 3.2 1.6 3.2 1.6v3.2L896 480h-1.6-1.6l-3.2-1.6H880h-1.6-1.6-8s-1.6 0-3.2 1.6l-1.6 1.6h-3.2-3.2-1.6c-1.6 0-1.6 1.6-3.2 1.6-9.6 3.2-14.4 3.2-14.4 4.8h-4.8s-1.6 0-3.2-1.6c0 0-1.6 0-1.6-1.6 0 1.6 0 0 0 0z m17.6-32c0-1.6 0-1.6 0 0l-1.6-3.2V448v-1.6c0-1.6-1.6-1.6-1.6-3.2s0-1.6 1.6-1.6c0 0 1.6 1.6 1.6 3.2 1.6 3.2 1.6 3.2 1.6 4.8 0 1.6 1.6 3.2 1.6 3.2v3.2h1.6l1.6-1.6c1.6 0 1.6-1.6 3.2-1.6h1.6s1.6-1.6 3.2-1.6h1.6c0-1.6 1.6-3.2 1.6-3.2v-1.6-19.2c0-1.6 0-3.2 1.6-3.2v-3.2H864l-3.2-1.6h-1.6v-1.6l1.6-1.6h1.6c1.6 0 1.6 0 3.2 1.6l3.2 3.2 1.6 1.6 1.6 1.6s0 1.6-1.6 3.2v16h1.6c3.2 0 4.8-1.6 4.8-1.6h3.2s1.6 0 1.6 1.6l-1.6 1.6s-1.6 0-1.6 1.6h-1.6c-1.6 0-3.2 1.6-4.8 1.6-1.6 0-1.6 1.6-3.2 1.6l-1.6 8h6.4c1.6 0 1.6 1.6 1.6 1.6v1.6l-3.2 3.2-3.2 3.2c-1.6 0-1.6 1.6-1.6 1.6 0 1.6-1.6 1.6-1.6 1.6v8H864s-1.6 0-1.6-1.6v-9.6-1.6l-3.2 1.6c-1.6 0-1.6 0-3.2 1.6H851.2v-1.6-1.6h1.6l4.8-1.6 1.6-1.6 4.8-1.6v-4.8-1.6c0-1.6 0-3.2-1.6-3.2h-1.6l-1.6 1.6-1.6 1.6c-1.6 0-3.2 0-3.2 1.6 0 0-1.6 0-1.6 1.6-1.6 1.6-4.8 1.6-8 3.2h-1.6s-1.6 0-1.6-1.6v-1.6c0-1.6 0-1.6 1.6-3.2 3.2 0 3.2-1.6 3.2-1.6zM910.4 486.4V480l1.6-3.2c0-3.2 0-4.8 1.6-6.4v-1.6-3.2-1.6c0-1.6 1.6-1.6 1.6-1.6l-3.2-4.8v-3.2l1.6-1.6 1.6 1.6 1.6 3.2h1.6l1.6 3.2s0 1.6-1.6 3.2c0 0-1.6 1.6-1.6 4.8v14.4-3.2 8s1.6 0 1.6-1.6l1.6-1.6 1.6-1.6v-1.6s1.6-1.6 1.6-3.2v-1.6c1.6-1.6 1.6-3.2 1.6-3.2v-3.2c1.6-3.2 1.6-4.8 1.6-4.8l1.6-3.2 1.6-3.2 1.6-1.6v-1.6h1.6v1.6h3.2l6.4-3.2h3.2l1.6-1.6s1.6 0 1.6-1.6l1.6-1.6h1.6V448h-1.6l-1.6-1.6-1.6-1.6 1.6-1.6h1.6l3.2 3.2 1.6 1.6s1.6 1.6 1.6 3.2l6.4-1.6h1.6l4.8-1.6h11.2l1.6 1.6c0 1.6 0 1.6-1.6 1.6H969.6s-3.2 0-8 1.6c-1.6 0-3.2 1.6-3.2 1.6l-3.2 1.6V460.8c0 1.6-1.6 3.2-1.6 4.8v1.6h1.6c1.6 0 1.6 0 3.2-1.6H963.2l1.6-1.6h1.6c1.6 0 3.2 0 3.2 1.6h1.6s0 1.6 1.6 1.6v1.6l-3.2 3.2h-1.6s0 1.6-1.6 1.6c0 0 0 1.6-1.6 1.6 0 0-1.6 1.6-1.6 3.2h6.4c1.6 1.6 1.6 1.6 1.6 3.2v1.6h-4.8l-8 1.6-4.8 1.6-1.6-1.6v-1.6c0-1.6 1.6-1.6 3.2-1.6l4.8-1.6 4.8-6.4h-1.6-1.6-1.6-1.6l-4.8 1.6c-1.6 0-3.2 0-3.2 1.6h-1.6-1.6v-1.6-11.2-1.6-3.2-1.6-3.2h-1.6s-1.6 0-4.8 1.6c-1.6 0-1.6 1.6-3.2 1.6l-6.4 1.6h-6.4l-4.8 9.6V473.6c0 1.6-1.6 3.2-1.6 3.2v3.2c0 1.6-1.6 3.2-1.6 3.2l-3.2 6.4c0 1.6 0 1.6-1.6 1.6l-1.6 1.6-1.6-1.6v-1.6-1.6-1.6c3.2 1.6 3.2 0 1.6 0z m9.6-62.4l3.2 3.2 1.6 1.6s1.6 1.6 1.6 3.2 0 1.6 1.6 3.2V440l-1.6 1.6c-1.6 1.6-1.6 1.6-3.2 1.6h-1.6c0-1.6 0-1.6 1.6-3.2 0 0 1.6 0 1.6-1.6v-3.2l-1.6-1.6-1.6-1.6h-1.6c-1.6-1.6-1.6-3.2-1.6-3.2-1.6-4.8 0-4.8 1.6-4.8-1.6 0 0 0 0 0z m19.2 52.8v-1.6l1.6-1.6v1.6c0 1.6 0 3.2 1.6 3.2 0 0 0 1.6 1.6 3.2v1.6l1.6 1.6v3.2l1.6 1.6v1.6l1.6 1.6-1.6 1.6s-1.6 0-3.2-1.6l-1.6-1.6v-1.6V484.8c-1.6-4.8-3.2-6.4-3.2-8z m1.6-33.6c1.6-1.6 3.2-1.6 4.8-3.2 3.2-1.6 4.8-3.2 4.8-3.2l1.6-1.6 3.2-3.2v-1.6h-1.6v-1.6c0-1.6 0-1.6 1.6-1.6s0 0 1.6 1.6l1.6 1.6c1.6 1.6 3.2 3.2 3.2 4.8 0 0 0 1.6-1.6 1.6s-1.6 1.6-3.2 1.6c0 0-1.6 1.6-3.2 1.6l-3.2 1.6-6.4 1.6v1.6h-1.6l-1.6-1.6zM995.2 488c1.6 0 1.6 1.6 3.2 1.6 1.6 1.6 1.6 1.6 1.6 3.2s-1.6 1.6-1.6 3.2h-1.6s-1.6 0-3.2-1.6l-1.6-1.6v-3.2c1.6-1.6 1.6-1.6 3.2-1.6z m12.8-48l3.2 3.2v1.6h-1.6v3.2l-4.8 19.2c-1.6 9.6-4.8 14.4-4.8 14.4l-3.2 3.2h-1.6c-1.6 0-1.6-1.6 0-4.8v-1.6l6.4-19.2 3.2-9.6c0-1.6 1.6-3.2 1.6-3.2 1.6-1.6 1.6-4.8 1.6-6.4zM20.8 614.4s388.8-108.8 916.8-107.2l32 1.6 28.8 3.2s-20.8-1.6-102.4 0c-81.6 1.6-408 1.6-848 105.6l-27.2-3.2z"
        fill="#ffffff" p-id="38418"></path>
    <path
        d="M569.6 484.8l3.2-1.6 1.6 1.6v1.6s0 1.6-1.6 1.6v1.6h3.2s1.6 0 3.2 1.6H608v-1.6-1.6-12.8s0-1.6 1.6-3.2c0-1.6 1.6-1.6 3.2-1.6h1.6c0 1.6 1.6 1.6 1.6 1.6v9.6s0 1.6 1.6 1.6h3.2V488h-1.6 1.6s1.6 0 1.6 1.6h8l1.6 1.6H636.8c1.6 1.6 3.2 1.6 6.4 3.2h17.6c1.6 0 3.2-1.6 3.2-1.6h3.2s1.6 0 1.6 1.6v1.6H664h-1.6H644.8c-1.6 0-1.6 0-3.2-1.6H640l-1.6-1.6h-1.6s-1.6 0-1.6-1.6c-1.6 0-3.2-1.6-3.2-1.6-1.6-1.6-4.8-1.6-8-1.6h-3.2l-8-1.6h-3.2H604.8h-8-8-6.4-1.6-1.6-1.6l-1.6-1.6h-1.6v-1.6c-6.4 4.8-6.4 3.2-4.8 1.6z m9.6-56c1.6 0 1.6 1.6 0 0l3.2 1.6 1.6 1.6 1.6 1.6s1.6 1.6 1.6 3.2v1.6c0 1.6-1.6 3.2-4.8 6.4h-1.6s-1.6 0-1.6-1.6 0-1.6 1.6-1.6v-3.2l-1.6-3.2s-1.6 0-1.6-1.6h-3.2l1.6-1.6-1.6-1.6v-1.6s0-1.6 1.6-1.6h1.6c0 1.6 1.6 1.6 1.6 1.6z m-3.2 27.2c0-1.6 1.6-1.6 1.6-1.6h1.6l1.6 1.6c3.2 1.6 4.8 4.8 4.8 8v1.6c0 1.6 0 1.6 1.6 1.6l6.4-1.6c1.6 0 1.6-1.6 3.2-1.6 0 0 1.6-1.6 3.2-1.6 1.6-1.6 3.2-1.6 3.2-1.6 1.6 0 1.6 0 3.2-1.6H611.2l1.6-1.6s1.6 0 1.6-1.6h1.6v-1.6-6.4-1.6s0-1.6-1.6-1.6l-1.6 1.6-3.2 1.6v1.6c-1.6 0-4.8 1.6-6.4 3.2h-1.6-1.6-1.6v-3.2c0-1.6 0-1.6 1.6-3.2 1.6 0 1.6-1.6 1.6-1.6s0-1.6 1.6-1.6v-4.8l-1.6-1.6v-1.6-1.6h1.6c1.6 0 3.2 1.6 3.2 1.6s1.6 1.6 1.6 3.2v11.2l1.6-1.6c1.6-1.6 1.6-1.6 3.2-1.6s1.6-1.6 1.6-1.6v-8-1.6-6.4-3.2-1.6-1.6l-3.2-3.2-1.6-1.6V416h3.2c3.2 1.6 4.8 4.8 6.4 8v1.6c-1.6 1.6-1.6 1.6-1.6 3.2v14.4s0 1.6 1.6 1.6c0 0 1.6 0 1.6-1.6 0 0 1.6 0 1.6-1.6H627.2c0 1.6 1.6 1.6 1.6 3.2v1.6c-1.6 0-1.6 1.6-3.2 1.6s-1.6 1.6-3.2 1.6l-1.6 1.6h-1.6l-1.6 1.6v8h1.6c4.8-1.6 9.6-3.2 12.8-3.2h11.2s1.6 0 1.6 1.6v1.6c0 1.6-1.6 1.6-1.6 1.6h-9.6c-1.6 0-1.6 0-3.2 1.6-1.6 0-3.2 0-3.2 1.6l-12.8-1.6-3.2 1.6c-1.6 0-1.6 1.6-4.8 1.6-1.6 0-1.6 1.6-3.2 1.6l-6.4 3.2h-1.6l-3.2 1.6c-1.6 0-1.6 1.6-4.8 1.6v1.6s0 1.6 1.6 3.2h3.2v3.2l-1.6 1.6-3.2-4.8v-1.6l-1.6-1.6c-1.6-1.6-1.6-1.6-1.6-3.2v-3.2-6.4c0-1.6-1.6-1.6-1.6-1.6l-1.6-1.6-4.8-3.2v-1.6z m40 14.4l4.8-3.2c1.6 0 1.6-1.6 1.6-1.6s1.6 0 1.6-1.6c1.6-1.6 3.2-1.6 4.8-1.6s3.2 0 4.8 1.6h1.6s0 1.6 1.6 1.6v1.6l-3.2 3.2-4.8 4.8V480h-8c-1.6 0-1.6 1.6-4.8 1.6-1.6 0-1.6 0-1.6-1.6v-1.6-1.6l1.6-1.6c1.6 0 3.2-1.6 4.8-1.6h1.6c1.6 0 1.6-1.6 3.2-3.2v-3.2l1.6-1.6 1.6-3.2h-3.2l-1.6 1.6h-1.6c-1.6 0-3.2 1.6-3.2 1.6h-3.2c-1.6 0-1.6 1.6-1.6 1.6h-1.6v-1.6l3.2 4.8z"
        fill="#ffffff" p-id="38419"></path>
</svg>